<svg width="159" height="43" viewBox="0 0 159 43" fill="none" xmlns="http://www.w3.org/2000/svg">
<path d="M14.58 36.36C11.94 36.36 9.672 35.832 7.776 34.776C5.904 33.696 4.464 32.184 3.456 30.24C2.448 28.272 1.944 25.956 1.944 23.292C1.944 21.3 2.232 19.512 2.808 17.928C3.384 16.32 4.212 14.952 5.292 13.824C6.372 12.672 7.692 11.796 9.252 11.196C10.836 10.572 12.612 10.26 14.58 10.26C15.9 10.26 17.196 10.428 18.468 10.764C19.74 11.1 20.856 11.58 21.816 12.204C22.32 12.516 22.656 12.9 22.824 13.356C22.992 13.788 23.028 14.22 22.932 14.652C22.836 15.06 22.632 15.408 22.32 15.696C22.032 15.984 21.66 16.152 21.204 16.2C20.772 16.224 20.292 16.068 19.764 15.732C19.02 15.252 18.216 14.904 17.352 14.688C16.488 14.472 15.612 14.364 14.724 14.364C13.02 14.364 11.58 14.712 10.404 15.408C9.228 16.104 8.34 17.112 7.74 18.432C7.14 19.752 6.84 21.372 6.84 23.292C6.84 25.188 7.14 26.808 7.74 28.152C8.34 29.496 9.228 30.516 10.404 31.212C11.58 31.908 13.02 32.256 14.724 32.256C15.636 32.256 16.536 32.148 17.424 31.932C18.312 31.692 19.152 31.332 19.944 30.852C20.472 30.54 20.94 30.408 21.348 30.456C21.78 30.48 22.14 30.624 22.428 30.888C22.716 31.152 22.908 31.488 23.004 31.896C23.1 32.28 23.076 32.688 22.932 33.12C22.788 33.528 22.5 33.888 22.068 34.2C21.108 34.896 19.956 35.436 18.612 35.82C17.292 36.18 15.948 36.36 14.58 36.36ZM47.4356 36C46.9796 36 46.5956 35.892 46.2836 35.676C45.9956 35.436 45.8036 35.136 45.7076 34.776C45.6116 34.416 45.6116 34.032 45.7076 33.624C45.8276 33.192 46.0556 32.784 46.3916 32.4L55.7156 20.7V21.78H47.2196C46.6676 21.78 46.2356 21.636 45.9236 21.348C45.6356 21.036 45.4916 20.616 45.4916 20.088C45.4916 19.536 45.6356 19.116 45.9236 18.828C46.2356 18.54 46.6676 18.396 47.2196 18.396H57.8756C58.4036 18.396 58.8356 18.516 59.1716 18.756C59.5076 18.972 59.7236 19.26 59.8196 19.62C59.9396 19.98 59.9516 20.364 59.8556 20.772C59.7596 21.18 59.5436 21.564 59.2076 21.924L49.7036 33.804V32.616H58.7036C59.8556 32.616 60.4316 33.18 60.4316 34.308C60.4316 34.836 60.2756 35.256 59.9636 35.568C59.6756 35.856 59.2556 36 58.7036 36H47.4356ZM67.5892 42.768C67.0612 42.768 66.6292 42.624 66.2932 42.336C65.9572 42.072 65.7532 41.712 65.6812 41.256C65.6332 40.8 65.7172 40.32 65.9332 39.816L68.3812 34.38V36.252L61.8292 21.096C61.6132 20.568 61.5412 20.076 61.6132 19.62C61.6852 19.164 61.9012 18.804 62.2612 18.54C62.6452 18.252 63.1612 18.108 63.8092 18.108C64.3612 18.108 64.8052 18.24 65.1412 18.504C65.4772 18.744 65.7772 19.212 66.0412 19.908L70.9012 32.04H69.8212L74.7892 19.872C75.0532 19.2 75.3652 18.744 75.7252 18.504C76.0852 18.24 76.5652 18.108 77.1652 18.108C77.6932 18.108 78.1132 18.252 78.4252 18.54C78.7372 18.804 78.9292 19.164 79.0012 19.62C79.0732 20.052 78.9892 20.532 78.7492 21.06L70.0012 41.04C69.6892 41.712 69.3532 42.168 68.9932 42.408C68.6332 42.648 68.1652 42.768 67.5892 42.768ZM91.4344 36.288C90.7864 36.288 90.2584 36.132 89.8504 35.82C89.4664 35.508 89.1544 35.016 88.9144 34.344L81.3904 13.068C81.1264 12.3 81.1744 11.652 81.5344 11.124C81.9184 10.596 82.5544 10.332 83.4424 10.332C84.0904 10.332 84.5944 10.488 84.9544 10.8C85.3144 11.088 85.6024 11.556 85.8184 12.204L92.2984 31.428H90.8584L97.6264 12.24C97.8664 11.592 98.1664 11.112 98.5264 10.8C98.8864 10.488 99.3544 10.332 99.9304 10.332C100.506 10.332 100.962 10.488 101.298 10.8C101.634 11.112 101.922 11.604 102.162 12.276L108.714 31.428H107.454L114.042 12.204C114.258 11.58 114.546 11.112 114.906 10.8C115.266 10.488 115.758 10.332 116.382 10.332C117.15 10.332 117.714 10.596 118.074 11.124C118.434 11.652 118.482 12.3 118.218 13.068L110.622 34.38C110.382 35.028 110.07 35.508 109.686 35.82C109.302 36.132 108.786 36.288 108.138 36.288C107.49 36.288 106.974 36.132 106.59 35.82C106.206 35.508 105.894 35.016 105.654 34.344L99.3904 16.488H100.218L93.8824 34.38C93.6424 35.028 93.3304 35.508 92.9464 35.82C92.5864 36.132 92.0824 36.288 91.4344 36.288ZM128.579 36.36C126.587 36.36 124.871 35.988 123.431 35.244C121.991 34.5 120.875 33.444 120.083 32.076C119.315 30.708 118.931 29.088 118.931 27.216C118.931 25.392 119.303 23.796 120.047 22.428C120.815 21.06 121.859 19.992 123.179 19.224C124.523 18.432 126.047 18.036 127.751 18.036C128.999 18.036 130.115 18.24 131.099 18.648C132.107 19.056 132.959 19.644 133.655 20.412C134.375 21.18 134.915 22.116 135.275 23.22C135.659 24.3 135.851 25.524 135.851 26.892C135.851 27.324 135.695 27.66 135.383 27.9C135.095 28.116 134.675 28.224 134.123 28.224H122.567V25.632H132.683L132.107 26.172C132.107 25.068 131.939 24.144 131.603 23.4C131.291 22.656 130.823 22.092 130.199 21.708C129.599 21.3 128.843 21.096 127.931 21.096C126.923 21.096 126.059 21.336 125.339 21.816C124.643 22.272 124.103 22.932 123.719 23.796C123.359 24.636 123.179 25.644 123.179 26.82V27.072C123.179 29.04 123.635 30.516 124.547 31.5C125.483 32.46 126.851 32.94 128.651 32.94C129.275 32.94 129.971 32.868 130.739 32.724C131.531 32.556 132.275 32.28 132.971 31.896C133.475 31.608 133.919 31.488 134.303 31.536C134.687 31.56 134.987 31.692 135.203 31.932C135.443 32.172 135.587 32.472 135.635 32.832C135.683 33.168 135.611 33.516 135.419 33.876C135.251 34.236 134.951 34.548 134.519 34.812C133.679 35.34 132.707 35.736 131.603 36C130.523 36.24 129.515 36.36 128.579 36.36ZM149.566 36.36C148.078 36.36 146.77 35.988 145.642 35.244C144.538 34.5 143.806 33.504 143.446 32.256L143.842 31.356V33.984C143.842 34.728 143.65 35.304 143.266 35.712C142.882 36.096 142.342 36.288 141.646 36.288C140.926 36.288 140.374 36.096 139.99 35.712C139.606 35.304 139.414 34.728 139.414 33.984V12.6C139.414 11.856 139.606 11.292 139.99 10.908C140.374 10.524 140.926 10.332 141.646 10.332C142.366 10.332 142.918 10.524 143.302 10.908C143.71 11.292 143.914 11.856 143.914 12.6V21.96H143.482C143.866 20.784 144.61 19.836 145.714 19.116C146.818 18.396 148.102 18.036 149.566 18.036C151.126 18.036 152.482 18.408 153.634 19.152C154.786 19.896 155.686 20.952 156.334 22.32C156.982 23.664 157.306 25.284 157.306 27.18C157.306 29.052 156.982 30.684 156.334 32.076C155.686 33.444 154.774 34.5 153.598 35.244C152.446 35.988 151.102 36.36 149.566 36.36ZM148.306 32.94C149.194 32.94 149.974 32.724 150.646 32.292C151.318 31.86 151.834 31.224 152.194 30.384C152.578 29.52 152.77 28.452 152.77 27.18C152.77 25.26 152.362 23.832 151.546 22.896C150.73 21.936 149.65 21.456 148.306 21.456C147.418 21.456 146.638 21.672 145.966 22.104C145.294 22.512 144.766 23.148 144.382 24.012C144.022 24.852 143.842 25.908 143.842 27.18C143.842 29.076 144.25 30.516 145.066 31.5C145.882 32.46 146.962 32.94 148.306 32.94Z" fill="black"/>
<path d="M44 27C44 32.5228 39.5228 37 34 37M44 27C44 21.4772 39.5228 17 34 17M44 27H24M34 37C28.4772 37 24 32.5228 24 27M34 37C31.4322 34.3038 30 30.7233 30 27C30 23.2767 31.4322 19.6962 34 17M34 37C36.5678 34.3038 38 30.7233 38 27C38 23.2767 36.5678 19.6962 34 17M24 27C24 21.4772 28.4772 17 34 17" stroke="black" stroke-width="2" stroke-linecap="round" stroke-linejoin="round"/>
</svg>
